<?xml version="1.0"?>
<svg xmlns="http://www.w3.org/2000/svg" id="bold" enable-background="new 0 0 32 32" height="512px" viewBox="0 0 32 32" width="512px" class=""><g><path d="m26 32h-20c-3.314 0-6-2.686-6-6v-20c0-3.314 2.686-6 6-6h20c3.314 0 6 2.686 6 6v20c0 3.314-2.686 6-6 6z" fill="#e3f8fa" data-original="#E3F8FA" class="active-path" style="fill:#E3E9ED" data-old_color="#e3f8fa"/><path d="m12.667 18.333h-.333v.667h.333c.184 0 .333-.149.333-.333s-.149-.334-.333-.334z" fill="#8ce1eb" data-original="#8CE1EB" class="" style="fill:#E3E9ED" data-old_color="#8ce1eb"/><path d="m16 18.333h-.333v.667h.333c.184 0 .333-.149.333-.333s-.149-.334-.333-.334z" fill="#8ce1eb" data-original="#8CE1EB" class="" style="fill:#E3E9ED" data-old_color="#8ce1eb"/><path d="m20.833 8h-9.667c-1.011 0-1.833.822-1.833 1.833v12.333c0 1.011.822 1.833 1.833 1.833h9.667c1.011 0 1.833-.822 1.833-1.833v-12.333c.001-1.011-.822-1.833-1.833-1.833zm-8.166 12h-.333v.833c0 .276-.224.5-.5.5s-.5-.224-.5-.5v-3c0-.276.224-.5.5-.5h.833c.735 0 1.333.598 1.333 1.333s-.598 1.334-1.333 1.334zm3.333 0h-.333v.833c0 .276-.224.5-.5.5s-.5-.224-.5-.5v-3c0-.276.224-.5.5-.5h.833c.735 0 1.333.598 1.333 1.333s-.598 1.334-1.333 1.334zm4.167-1.667h-.333v2.5c0 .276-.224.5-.5.5s-.5-.224-.5-.5v-2.5h-.334c-.276 0-.5-.224-.5-.5s.224-.5.5-.5h1.667c.276 0 .5.224.5.5s-.224.5-.5.5z" fill="#26c6da" data-original="#26C6DA" class="" data-old_color="#26c6da" style="fill:#5F7D95"/></g> </svg>
